<?xml version="1.0" standalone="no"?>
<!DOCTYPE svg PUBLIC "-//W3C//DTD SVG 1.1//EN" "http://www.w3.org/Graphics/SVG/1.1/DTD/svg11.dtd" >
<svg>
<metadata>
Created by FontForge 20090622 at Mon Sep 19 13:08:31 2016
 By deploy user
Copyright 2001 Double Alex Font Studio.
</metadata>
<defs>
<font id="PlumbCondensed-Light" horiz-adv-x="342" >
  <font-face 
    font-family="PlumbCondensed Light"
    font-weight="300"
    font-stretch="condensed"
    units-per-em="1000"
    panose-1="0 0 0 0 0 0 0 0 0 0"
    ascent="800"
    descent="-200"
    x-height="482"
    cap-height="712"
    bbox="-10 -236 1000 879"
    underline-thickness="50"
    underline-position="-75"
    unicode-range="U+0020-U+2265"
  />
<missing-glyph horiz-adv-x="1000" 
 />
    <glyph glyph-name=".notdef" horiz-adv-x="1000" 
 />
    <glyph glyph-name=".null" horiz-adv-x="0" 
 />
    <glyph glyph-name="nonmarkingreturn" horiz-adv-x="333" 
 />
    <glyph glyph-name="space" unicode=" " horiz-adv-x="177" 
 />
    <glyph glyph-name="exclam" unicode="!" horiz-adv-x="216" 
d="M148 712l-4 -523h-45l-4 523h53zM164 37q0 -18 -12.5 -30.5t-29.5 -12.5t-29.5 12.5t-12.5 29.5t12.5 29.5t29.5 12.5t29.5 -12t12.5 -29z" />
    <glyph glyph-name="quotedbl" unicode="&#x22;" horiz-adv-x="295" 
d="M237 556h-49v156h49v-156zM107 556h-49v156h49v-156z" />
    <glyph glyph-name="numbersign" unicode="#" horiz-adv-x="407" 
d="M378 438h-72l-16 -155h68v-43h-73l-25 -240h-44l26 240h-100l-25 -240h-44l26 240h-70v43h74l17 155h-71v43h76l24 231h44l-25 -231h100l24 231h44l-25 -231h67v-43zM263 438h-100l-16 -155h99z" />
    <glyph glyph-name="dollar" unicode="$" horiz-adv-x="391" 
d="M352 186q0 -93 -33.5 -138t-100.5 -52v-110h-41v108q-66 4 -102.5 44t-40.5 112h51q4 -57 27 -82t67 -27v309l-7 3q-39 17 -57.5 28.5t-34.5 30.5q-34 42 -34 130q0 163 131 175v89h41v-89q57 -5 89.5 -39t37.5 -108h-51q-3 49 -21 73.5t-57 28.5v-280l6 -2
q63 -21 92 -55q38 -45 38 -149zM179 405v267q-43 -5 -63 -35t-20 -93q0 -70 22 -99q15 -20 61 -40zM301 184q0 82 -25 114q-17 22 -60 39v-294q45 6 65 39t20 102z" />
    <glyph glyph-name="percent" unicode="%" horiz-adv-x="555" 
d="M231 465q0 -123 -97 -123t-97 123v130q0 124 97 124t97 -124v-130zM411 712l-224 -712h-45l224 712h45zM518 116q0 -123 -97 -123q-48 0 -73 32t-25 91v130q0 60 25 92t73 32q97 0 97 -124v-130zM188 465v130q0 44 -12.5 63.5t-41.5 19.5t-41.5 -19.5t-12.5 -63.5v-130
q0 -43 12.5 -62.5t41.5 -19.5t41.5 19.5t12.5 62.5zM474 116v130q0 44 -12 63.5t-41 19.5q-30 0 -42.5 -19.5t-12.5 -63.5v-130q0 -43 12.5 -62.5t42.5 -19.5q28 0 40.5 19.5t12.5 62.5z" />
    <glyph glyph-name="ampersand" unicode="&#x26;" horiz-adv-x="499" 
d="M434 0h-52l-28 52q-49 -58 -140 -58q-76 0 -123.5 53t-47.5 145q0 32 8 61t17 47t29.5 41t30 32t35.5 31l-10 19q-21 38 -28 52.5t-16 45t-9 60.5q0 63 33 100t88 37t88 -36t33 -100q0 -78 -76 -145l-46 -40l135 -251q23 70 23 197h47q0 -161 -43 -248zM295 582
q0 91 -74 91q-73 0 -73 -90q0 -34 10 -62.5t35 -74.5l6 -11l38 33q58 50 58 114zM331 95l-147 270q-31 -26 -46 -42t-31 -51t-16 -77q0 -72 32.5 -113t90.5 -41q81 0 117 54z" />
    <glyph glyph-name="quotesingle" unicode="'" horiz-adv-x="165" 
d="M107 556h-49v156h49v-156z" />
    <glyph glyph-name="parenleft" unicode="(" horiz-adv-x="241" 
d="M193 -56l-32 -35q-50 43 -66 77q-17 34 -17 93v554q0 59 17 92q19 37 66 78l32 -35q-42 -38 -54 -64q-13 -27 -13 -77v-542q0 -55 13 -79t54 -62z" />
    <glyph glyph-name="parenright" unicode=")" horiz-adv-x="241" 
d="M163 79q0 -59 -17 -93q-16 -34 -66 -77l-32 35q42 38 54 62q13 24 13 79v542q0 50 -13 77q-12 26 -54 64l32 35q47 -41 66 -78q17 -33 17 -92v-554z" />
    <glyph glyph-name="asterisk" unicode="*" horiz-adv-x="349" 
d="M307 498l-27 -37l-88 66l5 -128h-45l5 127l-87 -65l-27 37l102 60l-102 60l27 38l87 -65l-5 126h45l-5 -127l88 66l27 -38l-102 -60l25 -15l52 -30z" />
    <glyph glyph-name="plus" unicode="+" 
d="M309 241h-115v-127h-47v127h-115v45h115v126h47v-126h115v-45z" />
    <glyph glyph-name="comma" unicode="," horiz-adv-x="192" 
d="M154 68l-72 -175h-42l47 175h67z" />
    <glyph glyph-name="hyphen" unicode="-" horiz-adv-x="263" 
d="M214 242h-165v45h165v-45z" />
    <glyph glyph-name="period" unicode="." horiz-adv-x="210" 
d="M146 37q0 -18 -12.5 -30.5t-29.5 -12.5t-29.5 12.5t-12.5 29.5t12.5 29.5t29.5 12.5t29.5 -12t12.5 -29z" />
    <glyph glyph-name="slash" unicode="/" horiz-adv-x="236" 
d="M239 786l-196 -860h-46l196 860h46z" />
    <glyph glyph-name="zero" unicode="0" 
d="M310 159q0 -81 -36 -123t-97 -42t-97 42t-36 123v394q0 81 36 123t97 42t97 -42t36 -123v-394zM262 164v384q0 126 -85 126q-45 0 -65 -31t-20 -95v-384q0 -64 20 -95t65 -31q85 0 85 126z" />
    <glyph glyph-name="one" unicode="1" 
d="M216 0h-48v648l-88 -105v65l88 104h48v-712z" />
    <glyph glyph-name="two" unicode="2" 
d="M304 552q0 -84 -46 -174l-170 -333h209v-45h-261v45l182 356q37 71 37 151q0 64 -17.5 93t-62.5 29t-68 -32t-23 -111h-47q0 187 138 187q65 0 97 -40t32 -126z" />
    <glyph glyph-name="three" unicode="3" 
d="M308 164q0 -170 -140 -170q-143 0 -143 170v16h48v-9q0 -71 23 -102t72 -31t70.5 30.5t21.5 102.5v43q0 67 -24.5 97.5t-80.5 30.5h-13v45h13q50 0 72.5 29t22.5 93v40q0 70 -18 98t-65 28q-48 0 -68 -28.5t-20 -97.5v-14h-48v18q0 166 136 166q65 0 98 -38.5t33 -124.5
v-54q0 -108 -77 -135q87 -23 87 -146v-57z" />
    <glyph glyph-name="four" unicode="4" 
d="M316 117h-51v-117h-48v117h-192v45l177 550h47l-177 -550h145v216h48v-216h51v-45z" />
    <glyph glyph-name="five" unicode="5" 
d="M310 169q0 -175 -130 -175q-72 0 -102 40.5t-32 122.5h48q2 -65 19 -92t67 -27q49 0 65.5 37t16.5 102v106q0 78 -15.5 109.5t-63.5 31.5q-73 0 -85 -76h-44v364h243v-45h-199v-242q28 43 89 43q72 0 97.5 -45.5t25.5 -131.5v-122z" />
    <glyph glyph-name="six" unicode="6" 
d="M314 202q0 -114 -32 -161t-109 -47q-75 0 -108 47t-33 153q0 30 2 54.5t10 52.5l11 38t17.5 46.5t17.5 43.5l110 283h50l-129 -330q20 18 58 18q69 0 102 -45t33 -153zM266 197q0 90 -19 124.5t-74 34.5q-53 0 -73 -36.5t-20 -122.5q0 -89 19 -124t74 -35t74 35t19 124z
" />
    <glyph glyph-name="seven" unicode="7" 
d="M308 667l-165 -667h-47l165 667h-179v-112h-48v157h274v-45z" />
    <glyph glyph-name="eight" unicode="8" 
d="M319 192q0 -112 -35.5 -155t-112.5 -43t-112.5 43t-35.5 155q0 81 18.5 121t54.5 58q-63 34 -63 161q0 101 33.5 143.5t104.5 42.5t104.5 -42.5t33.5 -143.5q0 -125 -64 -161q36 -19 55 -59t19 -120zM261 532q0 79 -19.5 110.5t-70.5 31.5t-70.5 -31.5t-19.5 -110.5
q0 -78 20 -109.5t70 -31.5t70 31.5t20 109.5zM271 192q0 88 -23 121t-77 33q-55 0 -77.5 -33t-22.5 -121q0 -90 21.5 -122t78.5 -32t78.5 32t21.5 122z" />
    <glyph glyph-name="nine" unicode="9" 
d="M310 518q0 -30 -2 -54.5t-10 -52.5l-11 -38t-17.5 -46.5t-17.5 -43.5l-110 -283h-50l129 330q-20 -18 -58 -18q-69 0 -102 45t-33 153q0 114 32 161t109 47q75 0 108 -47t33 -153zM262 515q0 89 -19 124t-74 35t-74 -35t-19 -124q0 -90 19 -124.5t74 -34.5q53 0 73 36.5
t20 122.5z" />
    <glyph glyph-name="colon" unicode=":" horiz-adv-x="210" 
d="M147 404q0 -18 -12.5 -30.5t-29.5 -12.5t-29.5 12.5t-12.5 29.5t12.5 29.5t29.5 12.5t29.5 -12t12.5 -29zM147 37q0 -18 -12.5 -30.5t-29.5 -12.5t-29.5 12.5t-12.5 29.5t12.5 29.5t29.5 12.5t29.5 -12t12.5 -29z" />
    <glyph glyph-name="semicolon" unicode=";" horiz-adv-x="210" 
d="M153 404q0 -18 -12.5 -30.5t-29.5 -12.5t-29.5 12.5t-12.5 29.5t12.5 29.5t29.5 12.5t29.5 -12t12.5 -29zM154 68l-72 -175h-42l47 175h67z" />
    <glyph glyph-name="less" unicode="&#x3c;" 
d="M309 126l-279 112v54l279 112v-54l-217 -85l217 -85v-54z" />
    <glyph glyph-name="equal" unicode="=" 
d="M309 317h-277v45h277v-45zM309 164h-277v45h277v-45z" />
    <glyph glyph-name="greater" unicode="&#x3e;" 
d="M309 238l-279 -112v54l217 85l-217 85v54l279 -112v-54z" />
    <glyph glyph-name="question" unicode="?" horiz-adv-x="324" 
d="M305 556q0 -85 -35 -139l-72 -113q-12 -18 -12 -58v-58h-47v56q0 53 19 83l72 113q27 43 27 116q0 63 -19.5 90t-62.5 27q-45 0 -66.5 -29t-22.5 -102h-47q3 176 136 176q61 0 95.5 -39.5t34.5 -122.5zM210 37q0 -18 -12.5 -30.5t-29.5 -12.5t-29.5 12.5t-12.5 29.5
t12.5 29.5t29.5 12.5t29.5 -12t12.5 -29z" />
    <glyph glyph-name="at" unicode="@" horiz-adv-x="466" 
d="M418 0h-48v36q-29 -42 -87 -42q-113 0 -113 159v174q0 159 114 159q56 0 86 -36v76q0 71 -24.5 106t-92.5 35h-39q-68 0 -92.5 -35t-24.5 -106v-376q0 -53 7 -75t34 -51l-36 -31q-33 33 -43 63t-10 94v373q0 189 159 189h51q159 0 159 -189v-523zM370 158v164
q0 68 -18.5 94t-57.5 26q-38 0 -56.5 -26t-18.5 -94v-164q0 -70 16 -95t53 -25q40 0 61 26.5t21 93.5z" />
    <glyph glyph-name="A" unicode="A" horiz-adv-x="404" 
d="M391 0h-52l-38 163h-200l-9 -41l-18 -81l-9 -41h-52l165 712h45zM290 209l-77 337l-13 68l-13 -68l-75 -337v0v0h1v0h1v0h1v0h1h1h1h1h1h1h1h1h1h1h1h1h1h1h1h1h1h1h1h1h1h1h1h1h1h1h1h1h1h1h1h1h1h1h1h2h1h1h1h1h1h2h1h1h1h2h1h1h1h2h1h1h2h1h1h2h1h1h2h1h2h1h1h2h1h2h1
h2h1h1h2h1h2h1h2h1h2h2h1h2h1h2h1h2h2h1h2h1h2h2h1h2h2h1h2h2h1h2h2h1h2h2h2h1h2h2h2h1h2h2h2h2h1h2h2h2h2h2h1h2h10z" />
    <glyph glyph-name="B" unicode="B" horiz-adv-x="443" 
d="M401 183q0 -183 -185 -183h-140v712h135q93 0 137 -43.5t44 -131.5v-22q0 -55 -21.5 -95.5t-64.5 -52.5q43 -11 69 -55.5t26 -106.5v-22zM340 526q0 76 -29 108t-104 32h-79v-278h82q76 0 103 33t27 105zM349 194q0 73 -29 110.5t-108 37.5h-84v-296h84q78 0 107.5 37.5
t29.5 110.5z" />
    <glyph glyph-name="C" unicode="C" horiz-adv-x="417" 
d="M378 187q-5 -193 -159 -193q-32 0 -59 9t-51.5 30.5t-38.5 63t-14 99.5v320q0 111 46.5 156.5t116.5 45.5q154 0 159 -184h-53q-2 69 -25 103t-81 34q-53 0 -82 -33.5t-29 -131.5v-300q0 -98 29.5 -131.5t81.5 -33.5q55 0 80 33.5t27 112.5h52z" />
    <glyph glyph-name="D" unicode="D" horiz-adv-x="455" 
d="M399 201q0 -90 -45.5 -145.5t-133.5 -55.5h-144v712h143q83 0 131.5 -49.5t48.5 -152.5v-309zM347 210v291q0 94 -35 129.5t-101 35.5h-83v-620h84q66 0 100.5 42t34.5 122z" />
    <glyph glyph-name="E" unicode="E" horiz-adv-x="385" 
d="M355 0h-289v712h287v-46h-235v-283h194v-46h-194v-291h237v-46z" />
    <glyph glyph-name="F" unicode="F" horiz-adv-x="382" 
d="M353 666h-235v-295h194v-46h-194v-325h-52v712h287v-46z" />
    <glyph glyph-name="G" unicode="G" horiz-adv-x="438" 
d="M384 199q0 -205 -164 -205q-33 0 -60 9t-51.5 30.5t-38.5 63t-14 99.5v320q0 111 46.5 156.5t116.5 45.5q67 0 111 -41.5t47 -140.5h-53q-3 71 -28 103t-77 32q-53 0 -82 -33.5t-29 -131.5v-300q0 -99 29.5 -132t82.5 -33q54 0 83 34t29 134v109h-118v46h170v-165z" />
    <glyph glyph-name="H" unicode="H" horiz-adv-x="482" 
d="M406 0h-52v336h-226v-336h-52v712h52v-330h226v330h52v-712z" />
    <glyph glyph-name="I" unicode="I" horiz-adv-x="208" 
d="M130 0h-52v712h52v-712z" />
    <glyph glyph-name="J" unicode="J" horiz-adv-x="366" 
d="M295 194q0 -200 -140 -200q-84 0 -133 78l41 29q41 -60 92 -60q48 0 68 36t20 128v507h52v-518z" />
    <glyph glyph-name="K" unicode="K" horiz-adv-x="431" 
d="M419 0h-56l-160 368l-75 -133v-235h-52v712h52v-391l217 391h52l-162 -290z" />
    <glyph glyph-name="L" unicode="L" horiz-adv-x="380" 
d="M361 0h-285v712h52v-666h233v-46z" />
    <glyph glyph-name="M" unicode="M" horiz-adv-x="568" 
d="M492 0h-50v482l3 87l-16 -61l-121 -402h-45l-124 402l-16 61l3 -87v-482h-50v712h52l158 -530l154 530h52v-712z" />
    <glyph glyph-name="N" unicode="N" horiz-adv-x="498" 
d="M422 0h-52l-228 548l-19 54l3 -61v-541h-50v712h52l227 -545l19 -59l-2 64v540h50v-712z" />
    <glyph glyph-name="O" unicode="O" horiz-adv-x="440" 
d="M384 196q0 -58 -14 -99.5t-38.5 -63t-51.5 -30.5t-60 -9t-60 9t-51.5 30.5t-38.5 63t-14 99.5v320q0 58 14 99.5t38.5 63t51.5 30.5t60 9t60 -9t51.5 -30.5t38.5 -63t14 -99.5v-320zM332 206v300q0 99 -29.5 132t-82.5 33t-82.5 -33t-29.5 -132v-300q0 -99 29.5 -132
t82.5 -33t82.5 33t29.5 132z" />
    <glyph glyph-name="P" unicode="P" horiz-adv-x="428" 
d="M394 492q0 -190 -172 -190h-94v-302h-52v712h146q172 0 172 -190v-30zM342 498v18q0 81 -27.5 115.5t-98.5 34.5h-88v-318h88q70 0 98 34.5t28 115.5z" />
    <glyph glyph-name="Q" unicode="Q" horiz-adv-x="440" 
d="M402 -5l-32 -33l-58 57q-39 -25 -92 -25q-33 0 -60 9t-51.5 30.5t-38.5 63t-14 99.5v320q0 58 14 99.5t38.5 63t51.5 30.5t60 9t60 -9t51.5 -30.5t38.5 -63t14 -99.5v-320q0 -95 -39 -145zM332 206v300q0 99 -29.5 132t-82.5 33t-82.5 -33t-29.5 -132v-300
q0 -99 29.5 -132t82.5 -33q35 0 58 12l-78 77l31 33q79 -77 79 -78q22 39 22 121z" />
    <glyph glyph-name="R" unicode="R" horiz-adv-x="443" 
d="M413 0h-56l-135 329h-94v-329h-52v712h157q80 0 120.5 -47.5t40.5 -130.5v-26q0 -141 -117 -175zM342 513v14q0 73 -28 106t-88 33h-98v-292h98q116 0 116 139z" />
    <glyph glyph-name="S" unicode="S" horiz-adv-x="391" 
d="M352 186q0 -102 -41 -147t-123 -45q-71 0 -110.5 40.5t-43.5 115.5h52q4 -60 29.5 -84t74.5 -24q59 0 84.5 32.5t25.5 109.5q0 80 -24 113q-19 25 -63 41l-41 15q-63 23 -92 59q-34 42 -34 130q0 176 152 176q66 0 103.5 -34t43.5 -114h-52q-3 54 -25.5 78t-70.5 24
q-52 0 -76 -30t-24 -98q0 -70 21 -98q16 -22 66 -41l38 -14q66 -25 92 -56q38 -45 38 -149z" />
    <glyph glyph-name="T" unicode="T" horiz-adv-x="353" 
d="M337 666h-135v-666h-52v666h-134v46h321v-46z" />
    <glyph glyph-name="U" unicode="U" horiz-adv-x="464" 
d="M394 192q0 -103 -40.5 -150.5t-121.5 -47.5t-121.5 47t-40.5 151v520h52v-514q0 -86 26 -121.5t84 -35.5t84 35.5t26 121.5v514h52v-520z" />
    <glyph glyph-name="V" unicode="V" horiz-adv-x="393" 
d="M382 712l-162 -712h-44l-165 712h52l120 -530l16 -88l16 88l116 530h51z" />
    <glyph glyph-name="W" unicode="W" horiz-adv-x="565" 
d="M547 712l-109 -712h-49l-98 532l-13 84l-12 -84l-96 -532h-49l-111 712h52l76 -513l11 -91l13 91l92 513h50l95 -513l13 -91l11 91l73 513h51z" />
    <glyph glyph-name="X" unicode="X" horiz-adv-x="365" 
d="M361 0h-56l-108 266l-17 50l-17 -50l-106 -266h-53l152 370l-141 342h56l93 -230l20 -60l20 60l92 230h53l-141 -342z" />
    <glyph glyph-name="Y" unicode="Y" horiz-adv-x="358" 
d="M352 712l-147 -422v-290h-52v290l-147 422h54l98 -289l21 -73l21 73l98 289h54z" />
    <glyph glyph-name="Z" unicode="Z" horiz-adv-x="362" 
d="M328 0h-294v51l240 615h-230v46h284v-46l-242 -620h242v-46z" />
    <glyph glyph-name="bracketleft" unicode="[" horiz-adv-x="232" 
d="M203 -74h-125v860h125v-45h-77v-770h77v-45z" />
    <glyph glyph-name="backslash" unicode="\" horiz-adv-x="236" 
d="M239 -74h-46l-196 860h46z" />
    <glyph glyph-name="bracketright" unicode="]" horiz-adv-x="232" 
d="M154 -74h-125v45h77v770h-77v45h125v-860z" />
    <glyph glyph-name="asciicircum" unicode="^" 
d="M299 422h-46l-82 232l-82 -232h-46l110 296h36z" />
    <glyph glyph-name="underscore" unicode="_" horiz-adv-x="350" 
d="M350 -160h-350v38h350v-38z" />
    <glyph glyph-name="grave" unicode="`" horiz-adv-x="492" 
d="M279 590h-48l-85 147h57z" />
    <glyph glyph-name="a" unicode="a" horiz-adv-x="348" 
d="M291 0h-48v49q-28 -52 -90 -52t-90 40q-26 38 -26 95q0 68 35 103.5t93 35.5h78v92q0 45 -16.5 61.5t-51.5 16.5q-70 0 -77 -78h-47q3 61 39.5 92t85.5 31q55 0 85 -29.5t30 -85.5v-371zM243 168v62h-74q-84 0 -84 -97q0 -95 72 -95q44 0 68 36q18 28 18 94z" />
    <glyph glyph-name="b" unicode="b" horiz-adv-x="364" 
d="M322 157q0 -54 -17 -96q-28 -67 -104 -67q-69 0 -95 50v-44h-48v712h48v-279q30 53 96 53q74 0 103 -69q17 -42 17 -93v-167zM274 162v157q0 67 -21 95t-61 28q-86 0 -86 -123v-157q0 -124 86 -124q40 0 61 28.5t21 95.5z" />
    <glyph glyph-name="c" unicode="c" horiz-adv-x="322" 
d="M292 127q-2 -60 -33.5 -96.5t-91.5 -36.5q-56 0 -90.5 40t-34.5 123v167q0 81 35 121.5t90 40.5q120 0 124 -132h-48q-3 47 -20 67.5t-57 20.5q-76 0 -76 -123v-157q0 -68 19.5 -96t56.5 -28q73 0 78 89h48z" />
    <glyph glyph-name="d" unicode="d" horiz-adv-x="364" 
d="M306 0h-48v44q-26 -50 -95 -50q-76 0 -104 67q-17 42 -17 96v167q0 51 17 93q29 69 103 69q66 0 96 -53v279h48v-712zM258 162v157q0 123 -86 123q-40 0 -61 -28t-21 -95v-157q0 -67 21 -95.5t61 -28.5q86 0 86 124z" />
    <glyph glyph-name="e" unicode="e" horiz-adv-x="340" 
d="M298 227h-208v-59q0 -72 21 -101t63 -29q38 0 55.5 18.5t19.5 63.5h47q-3 -59 -33.5 -92.5t-88.5 -33.5q-61 0 -96.5 41t-35.5 128v155q0 168 130 168q126 0 126 -162v-97zM250 268v51q0 69 -18 96t-60 27t-62 -28.5t-20 -100.5v-45h160z" />
    <glyph glyph-name="f" unicode="f" horiz-adv-x="197" 
d="M186 444h-72v-444h-48v444h-47v38h47v134q0 45 23.5 70.5t62.5 25.5h34v-45h-26q-25 0 -35.5 -13.5t-10.5 -44.5v-127h72v-38z" />
    <glyph glyph-name="g" unicode="g" horiz-adv-x="359" 
d="M306 -69q0 -90 -33 -128.5t-96 -38.5q-55 0 -88 30.5t-37 90.5h48q3 -37 20.5 -57t56.5 -20q42 0 61.5 28.5t19.5 97.5v110q-26 -50 -95 -50q-76 0 -104 67q-17 42 -17 96v167q0 51 17 93q29 69 103 69q66 0 96 -53v49h48v-551zM258 162v157q0 123 -86 123q-40 0 -61 -28
t-21 -95v-157q0 -67 21 -95.5t61 -28.5q86 0 86 124z" />
    <glyph glyph-name="h" unicode="h" horiz-adv-x="367" 
d="M310 0h-48v352q0 48 -17 68.5t-54 20.5q-83 0 -83 -90v-351h-48v712h48v-277q28 51 92 51q55 0 82.5 -33.5t27.5 -90.5v-362z" />
    <glyph glyph-name="i" unicode="i" horiz-adv-x="185" 
d="M130 676q0 -16 -11 -27.5t-26 -11.5q-16 0 -27 11t-11 26q0 16 11 27t26 11t26.5 -11t11.5 -25zM117 0h-49v482h49v-482z" />
    <glyph glyph-name="j" unicode="j" horiz-adv-x="186" 
d="M133 676q0 -16 -11 -27.5t-26 -11.5q-16 0 -27 11t-11 26q0 16 11 27t26 11t26.5 -11t11.5 -25zM121 -120q0 -51 -24 -80.5t-73 -29.5h-17v45h12q30 0 42 16t12 50v601h48v-602z" />
    <glyph glyph-name="k" unicode="k" horiz-adv-x="350" 
d="M328 0h-51l-113 254l-56 -89v-165h-48v712h48v-472l147 242h52l-111 -183z" />
    <glyph glyph-name="l" unicode="l" horiz-adv-x="178" 
d="M113 0h-48v712h48v-712z" />
    <glyph glyph-name="m" unicode="m" horiz-adv-x="569" 
d="M512 0h-48v352q0 49 -17 69t-55 20q-82 0 -82 -90v-351h-48v352q0 48 -17 68.5t-54 20.5q-83 0 -83 -90v-351h-48v482h48v-47q28 51 92 51q69 0 93 -53q36 53 109 53q55 0 82.5 -33.5t27.5 -90.5v-362z" />
    <glyph glyph-name="n" unicode="n" horiz-adv-x="367" 
d="M310 0h-48v352q0 48 -17 68.5t-54 20.5q-83 0 -83 -90v-351h-48v482h48v-47q28 51 92 51q55 0 82.5 -33.5t27.5 -90.5v-362z" />
    <glyph glyph-name="o" unicode="o" horiz-adv-x="344" 
d="M302 157q0 -84 -34.5 -123.5t-95.5 -39.5t-95.5 39.5t-34.5 123.5v167q0 82 34.5 122t95.5 40t95.5 -40t34.5 -122v-167zM254 162v157q0 68 -20 95.5t-62 27.5t-62 -27.5t-20 -95.5v-157q0 -69 20 -96.5t62 -27.5t62 27.5t20 96.5z" />
    <glyph glyph-name="p" unicode="p" horiz-adv-x="366" 
d="M324 157q0 -54 -17 -96q-28 -67 -104 -67q-69 0 -95 50v-274h-48v712h48v-49q30 53 96 53q74 0 103 -69q17 -42 17 -93v-167zM276 162v157q0 67 -21 95t-61 28q-86 0 -86 -123v-157q0 -124 86 -124q40 0 61 28.5t21 95.5z" />
    <glyph glyph-name="q" unicode="q" horiz-adv-x="366" 
d="M306 -230h-48v274q-26 -50 -95 -50q-76 0 -104 67q-17 42 -17 96v167q0 51 17 93q29 69 103 69q66 0 96 -53v49h48v-712zM258 162v157q0 123 -86 123q-40 0 -61 -28t-21 -95v-157q0 -67 21 -95.5t61 -28.5q86 0 86 124z" />
    <glyph glyph-name="r" unicode="r" horiz-adv-x="250" 
d="M228 436q-11 1 -29 1q-44 0 -67.5 -24.5t-23.5 -70.5v-342h-48v482h48v-53q28 55 105 55l15 -1v-47z" />
    <glyph glyph-name="s" unicode="s" horiz-adv-x="315" 
d="M272 132q0 -138 -117 -138q-109 0 -117 124h48q3 -43 18.5 -62t50.5 -19q40 0 55 22.5t15 72.5q0 41 -9.5 58t-41.5 28l-44 15q-48 17 -66 44t-18 85q0 63 30 93.5t82 30.5q51 0 80.5 -27.5t31.5 -84.5h-47q-2 39 -17.5 54t-47.5 15q-36 0 -50.5 -18t-14.5 -63
q0 -41 9.5 -57.5t37.5 -26.5l43 -15q49 -17 69 -41.5t20 -89.5z" />
    <glyph glyph-name="t" unicode="t" horiz-adv-x="204" 
d="M186 0h-34q-39 0 -62.5 25.5t-23.5 70.5v348h-47v38h47v154h48v-154h72v-38h-72v-341q0 -31 10.5 -44.5t35.5 -13.5h26v-45z" />
    <glyph glyph-name="u" unicode="u" horiz-adv-x="367" 
d="M307 0h-48v48q-28 -51 -92 -51q-55 0 -82.5 33.5t-27.5 90.5v361h48v-351q0 -48 17 -68.5t54 -20.5q83 0 83 90v350h48v-482z" />
    <glyph glyph-name="v" unicode="v" horiz-adv-x="294" 
d="M288 482l-120 -482h-42l-120 482h49l80 -336l12 -65l12 65l80 336h49z" />
    <glyph glyph-name="w" unicode="w" horiz-adv-x="476" 
d="M474 482l-103 -482h-43l-76 336l-12 64l-12 -64l-76 -336h-43l-103 482h49l66 -339l9 -60l11 60l78 339h42l78 -339l11 -60l9 60l66 339h49z" />
    <glyph glyph-name="x" unicode="x" horiz-adv-x="301" 
d="M283 0h-49l-70 165l-13 39l-13 -39l-71 -165h-49l109 246l-104 236h49l66 -155l13 -38l13 38l65 155h49l-104 -235z" />
    <glyph glyph-name="y" unicode="y" horiz-adv-x="284" 
d="M285 482l-152 -611q-11 -42 -23 -59q-22 -30 -71 -30h-16v45h13q26 0 36 12t20 53l29 115l-118 475h49l79 -335l13 -63l13 63l79 335h49z" />
    <glyph glyph-name="z" unicode="z" horiz-adv-x="292" 
d="M260 0h-227v46l176 391h-165v45h216v-46l-177 -391h177v-45z" />
    <glyph glyph-name="braceleft" unicode="{" horiz-adv-x="253" 
d="M219 -74h-22q-56 0 -79 32q-18 25 -18 85v215q0 38 -14 56q-16 20 -41 20h-15v44h15q25 0 41 20q14 18 14 55v216q0 60 18 85q23 32 79 32h22v-44h-21q-33 0 -42 -16q-8 -13 -8 -58v-216q0 -41 -11 -61.5t-42 -34.5q31 -14 42 -35t11 -62v-215q0 -45 8 -58q11 -16 42 -16
h21v-44z" />
    <glyph glyph-name="bar" unicode="|" horiz-adv-x="232" 
d="M140 -74h-48v860h48v-860z" />
    <glyph glyph-name="braceright" unicode="}" horiz-adv-x="253" 
d="M223 334h-15q-25 0 -41 -20q-14 -18 -14 -56v-215q0 -60 -18 -85q-23 -32 -79 -32h-22v44h21q33 0 42 16q8 13 8 58v215q0 41 11 62t42 35q-31 14 -42 34.5t-11 61.5v216q0 45 -8 58q-9 16 -42 16h-21v44h22q56 0 79 -32q18 -25 18 -85v-216q0 -37 14 -55q16 -20 41 -20
h15v-44z" />
    <glyph glyph-name="asciitilde" unicode="~" 
d="M325 285q-21 -34 -41 -51t-53 -17q-27 0 -68 29q-37 27 -53 27q-18 0 -30 -10t-27 -36l-36 20q21 34 41 51t53 17q30 0 70 -30q36 -26 51 -26q18 0 30 10t27 36z" />
    <glyph glyph-name="nbspace" unicode="&#xa0;" horiz-adv-x="177" 
 />
    <glyph glyph-name="sterling" unicode="&#xa3;" 
d="M326 545h-48q0 30 -2.5 49.5t-10.5 40t-27 30.5t-48 10q-47 0 -65 -28t-18 -98v-171h128v-38h-128v-295h213v-45h-261v340h-54v38h54v178q0 163 131 163q64 0 100 -40.5t36 -125.5v-8z" />
    <glyph glyph-name="currency" unicode="&#xa4;" 
d="M322 159q0 -81 -36 -123t-97 -42t-97 42t-36 123v139h-46v38h46v50h-46v38h46v129q0 81 36 123t97 42t97 -42t36 -123v-15h-48v10q0 126 -85 126q-45 0 -65 -31t-20 -95v-124h176l-13 -38h-163v-50h151l-13 -38h-138v-134q0 -64 20 -95t65 -31q85 0 85 126v7h48v-12z" />
    <glyph glyph-name="brokenbar" unicode="&#xa6;" horiz-adv-x="208" 
d="M130 436h-52v350h52v-350zM130 -74h-52v350h52v-350z" />
    <glyph glyph-name="section" unicode="&#xa7;" horiz-adv-x="566" 
d="M469 247q0 -113 -110 -170q103 -43 103 -146q0 -73 -50.5 -120t-129.5 -47q-78 0 -125.5 40.5t-57.5 114.5h54q15 -107 129 -107q59 0 92.5 31t33.5 85q0 41 -25 72t-69 43l-83 23q-61 17 -97.5 66t-36.5 114q0 112 110 171q-50 24 -74.5 55.5t-24.5 84.5q0 71 48.5 116
t127.5 45q75 0 122.5 -40t54.5 -111h-53q-8 56 -37 80t-89 24q-57 0 -89 -29.5t-32 -81.5q0 -84 91 -109l83 -23q62 -17 98 -66t36 -115zM415 247q0 65 -36 103.5t-96 38.5q-59 0 -95.5 -38.5t-36.5 -100.5q0 -66 36 -105.5t96 -39.5q59 0 95.5 39t36.5 103z" />
    <glyph glyph-name="copyright" unicode="&#xa9;" horiz-adv-x="800" 
d="M762 363q0 -155 -105 -262t-257 -107q-150 0 -256 106t-106 256t106 256t256 106q147 0 254.5 -105.5t107.5 -249.5zM714 350q0 134 -92 229t-222 95q-128 0 -221 -94t-93 -224t93 -224t221 -94q126 0 220 93.5t94 218.5zM535 202q-37 -31 -63 -41q-28 -11 -67 -11
q-83 0 -130.5 55t-47.5 151t47.5 151.5t130.5 55.5q34 0 64 -10q28 -10 66 -43l-30 -30q-29 25 -49.5 33.5t-50.5 8.5q-133 0 -133 -171q0 -78 34.5 -119t99.5 -41q30 0 50 8.5t49 32.5z" />
    <glyph glyph-name="guillemotleft" unicode="&#xab;" horiz-adv-x="414" 
d="M374 91l-174 174l174 174v-66l-108 -108l108 -108v-66zM204 91l-174 174l174 174v-66l-108 -108l108 -108v-66z" />
    <glyph glyph-name="logicalnot" unicode="&#xac;" 
d="M309 107h-47v133h-230v47h277v-180z" />
    <glyph glyph-name="registered" unicode="&#xae;" horiz-adv-x="438" 
d="M407 534q0 -80 -54.5 -135.5t-133.5 -55.5q-78 0 -133 55t-55 133t55 133t133 55q76 0 132 -55t56 -130zM383 528q0 70 -48 119.5t-116 49.5q-67 0 -115.5 -49t-48.5 -117t48.5 -117t115.5 -49q66 0 115 48.5t49 114.5zM296 427h-27l-51 87h-35v-87h-23v208h67
q26 0 45 -18t19 -44q0 -21 -13 -36t-34 -21zM268 574q0 17 -12.5 28.5t-31.5 11.5h-41v-80h41q19 0 31.5 11.5t12.5 28.5z" />
    <glyph glyph-name="degree" unicode="&#xb0;" horiz-adv-x="302" 
d="M258 614q0 -47 -31 -78.5t-76 -31.5q-44 0 -75.5 31.5t-31.5 75.5t31.5 75.5t75.5 31.5q43 0 75 -31.5t32 -72.5zM213 609q0 30 -18 48.5t-45 18.5t-44 -17.5t-17 -47.5q0 -29 17.5 -47t44.5 -18t44.5 18t17.5 45z" />
    <glyph glyph-name="plusminus" unicode="&#xb1;" 
d="M309 251h-115v-127h-47v127h-115v45h115v126h47v-126h115v-45zM309 0h-276v46h276v-46z" />
    <glyph glyph-name="paragraph" unicode="&#xb6;" horiz-adv-x="385" 
d="M329 -230h-45v894h-49v-894h-45v649q-70 0 -111.5 44t-41.5 103q0 60 43.5 103t118.5 43h130v-942z" />
    <glyph glyph-name="guillemotright" unicode="&#xbb;" horiz-adv-x="414" 
d="M384 265l-174 -174v66l108 108l-108 108v66zM214 265l-174 -174v66l108 108l-108 108v66z" />
    <glyph glyph-name="divide" unicode="&#xf7;" 
d="M216 434q0 -19 -13.5 -33t-32.5 -14t-32.5 13.5t-13.5 32.5t13.5 32.5t32.5 13.5t32.5 -13.5t13.5 -31.5zM309 240h-277v47h277v-47zM216 95q0 -19 -13.5 -33t-32.5 -14t-32.5 13.5t-13.5 32.5t13.5 32.5t32.5 13.5t32.5 -13.5t13.5 -31.5z" />
    <glyph glyph-name="florin" unicode="&#x192;" horiz-adv-x="303" 
d="M287 667h-23q-38 0 -54 -19t-22 -61l-26 -207h90v-38h-95l-73 -572h-48l73 572h-84v38h89l26 206q17 126 123 126h24v-45z" />
    <glyph glyph-name="Delta" unicode="&#x394;" horiz-adv-x="591" 
d="M581 0h-571l262 712h47zM511 48l-216 592l-215 -592h431z" />
    <glyph glyph-name="mu" unicode="&#x3bc;" horiz-adv-x="367" 
d="M307 0h-48v48q-28 -51 -92 -51q-33 0 -62 20v-247h-48v712h48v-351q0 -48 17 -68.5t54 -20.5q83 0 83 90v350h48v-482z" />
    <glyph glyph-name="afii10023" unicode="&#x401;" horiz-adv-x="385" 
d="M319 803q0 -16 -11 -27.5t-26 -11.5q-16 0 -27 11t-11 26q0 16 11 27t26 11t26.5 -11t11.5 -25zM192 803q0 -16 -11 -27.5t-26 -11.5q-16 0 -27 11t-11 26q0 16 11 27t26 11t26.5 -11t11.5 -25zM355 0h-289v712h287v-46h-235v-283h194v-46h-194v-291h237v-46z" />
    <glyph glyph-name="afii10051" unicode="&#x402;" horiz-adv-x="495" 
d="M438 0q0 -51 -26 -82.5t-75 -31.5h-17v49h12q30 0 42 16t12 50v243q0 81 -28 115.5t-98 34.5q-49 0 -88 -14v-380h-52v666h-104v46h321v-46h-165v-242q39 16 94 16q172 0 172 -190v-250z" />
    <glyph glyph-name="afii10052" unicode="&#x403;" horiz-adv-x="354" 
d="M291 864l-92 -126h-43l83 126h52zM338 666h-220v-666h-52v712h272v-46z" />
    <glyph glyph-name="afii10053" unicode="&#x404;" horiz-adv-x="417" 
d="M378 187q-5 -193 -159 -193q-32 0 -59 9t-51.5 30.5t-38.5 63t-14 99.5v320q0 111 46.5 156.5t116.5 45.5q154 0 159 -184h-53q-2 69 -25 103t-81 34q-53 0 -82 -33.5t-29 -131.5v-123h171v-46h-171v-131q0 -98 29.5 -131.5t81.5 -33.5q55 0 80 33.5t27 112.5h52z" />
    <glyph glyph-name="afii10054" unicode="&#x405;" horiz-adv-x="391" 
d="M352 186q0 -102 -41 -147t-123 -45q-71 0 -110.5 40.5t-43.5 115.5h52q4 -60 29.5 -84t74.5 -24q59 0 84.5 32.5t25.5 109.5q0 80 -24 113q-19 25 -63 41l-41 15q-63 23 -92 59q-34 42 -34 130q0 176 152 176q66 0 103.5 -34t43.5 -114h-52q-3 54 -25.5 78t-70.5 24
q-52 0 -76 -30t-24 -98q0 -70 21 -98q16 -22 66 -41l38 -14q66 -25 92 -56q38 -45 38 -149z" />
    <glyph glyph-name="afii10055" unicode="&#x406;" horiz-adv-x="208" 
d="M130 0h-52v712h52v-712z" />
    <glyph glyph-name="afii10056" unicode="&#x407;" horiz-adv-x="208" 
d="M205 803q0 -16 -11 -27.5t-26 -11.5q-16 0 -27 11t-11 26q0 16 11 27t26 11t26.5 -11t11.5 -25zM78 803q0 -16 -11 -27.5t-26 -11.5q-16 0 -27 11t-11 26q0 16 11 27t26 11t26.5 -11t11.5 -25zM130 0h-52v712h52v-712z" />
    <glyph glyph-name="afii10057" unicode="&#x408;" horiz-adv-x="366" 
d="M295 194q0 -200 -140 -200q-84 0 -133 78l41 29q41 -60 92 -60q48 0 68 36t20 128v507h52v-518z" />
    <glyph glyph-name="afii10058" unicode="&#x409;" horiz-adv-x="706" 
d="M672 190q0 -190 -172 -190h-146v666h-165l-14 -420q-9 -246 -169 -246h-16v48h5q68 0 97.5 57.5t32.5 168.5l14 438h267v-315h94q172 0 172 -190v-17zM620 196v5q0 81 -28 115.5t-98 34.5h-88v-305h88q71 0 98.5 34.5t27.5 115.5z" />
    <glyph glyph-name="afii10059" unicode="&#x40a;" horiz-adv-x="706" 
d="M672 190q0 -190 -172 -190h-146v351h-226v-351h-52v712h52v-315h226v315h52v-315h94q172 0 172 -190v-17zM620 196v5q0 81 -28 115.5t-98 34.5h-88v-305h88q71 0 98.5 34.5t27.5 115.5z" />
    <glyph glyph-name="afii10060" unicode="&#x40b;" horiz-adv-x="495" 
d="M438 0h-52v244q0 81 -28 115.5t-98 34.5q-49 0 -88 -14v-380h-52v666h-104v46h321v-46h-165v-242q39 16 94 16q172 0 172 -190v-250z" />
    <glyph glyph-name="afii10061" unicode="&#x40c;" horiz-adv-x="431" 
d="M301 864l-92 -126h-43l83 126h52zM419 0h-56l-160 368l-75 -133v-235h-52v712h52v-391l217 391h52l-162 -290z" />
    <glyph glyph-name="afii10062" unicode="&#x40e;" horiz-adv-x="380" 
d="M313 865q-7 -54 -41 -84.5t-87 -30.5t-86 29.5t-40 85.5h45q4 -32 24 -52t59 -20q38 0 58 20.5t23 51.5h45zM370 712l-199 -621q-13 -41 -28 -60q-26 -31 -76 -31h-27v46h28q26 0 36.5 11.5t23.5 51.5l37 114l-155 489h53l111 -359l16 -58l17 59l110 358h53z" />
    <glyph glyph-name="afii10145" unicode="&#x40f;" horiz-adv-x="482" 
d="M406 0h-141v-167h-49v167h-140v712h52v-666h226v666h52v-712z" />
    <glyph glyph-name="afii10017" unicode="&#x410;" horiz-adv-x="404" 
d="M391 0h-52l-38 163h-200l-9 -41l-18 -81l-9 -41h-52l165 712h45zM290 209l-77 337l-13 68l-13 -68l-75 -337v0v0h1v0h1v0h1v0h1h1h1h1h1h1h1h1h1h1h1h1h1h1h1h1h1h1h1h1h1h1h1h1h1h1h1h1h1h1h1h1h1h1h1h2h1h1h1h1h1h2h1h1h1h2h1h1h1h2h1h1h2h1h1h2h1h1h2h1h2h1h1h2h1h2h1
h2h1h1h2h1h2h1h2h1h2h2h1h2h1h2h1h2h2h1h2h1h2h2h1h2h2h1h2h2h1h2h2h1h2h2h2h1h2h2h2h1h2h2h2h2h1h2h2h2h2h2h1h2h10z" />
    <glyph glyph-name="afii10018" unicode="&#x411;" horiz-adv-x="443" 
d="M401 190q0 -190 -172 -190h-153v712h294v-46h-242v-256h101q172 0 172 -190v-30zM349 196v18q0 81 -28 115.5t-98 34.5h-95v-318h95q71 0 98.5 34.5t27.5 115.5z" />
    <glyph glyph-name="afii10019" unicode="&#x412;" horiz-adv-x="443" 
d="M401 183q0 -183 -185 -183h-140v712h135q93 0 137 -43.5t44 -131.5v-22q0 -55 -21.5 -95.5t-64.5 -52.5q43 -11 69 -55.5t26 -106.5v-22zM340 526q0 76 -29 108t-104 32h-79v-278h82q76 0 103 33t27 105zM349 194q0 73 -29 110.5t-108 37.5h-84v-296h84q78 0 107.5 37.5
t29.5 110.5z" />
    <glyph glyph-name="afii10020" unicode="&#x413;" horiz-adv-x="354" 
d="M338 666h-220v-666h-52v712h272v-46z" />
    <glyph glyph-name="afii10021" unicode="&#x414;" horiz-adv-x="494" 
d="M479 -167h-49v167h-373v-167h-49v213h48q52 121 69 235t17 339v92h269v-666h68v-213zM359 46v620h-166v-104q0 -206 -15.5 -298t-65.5 -218h247z" />
    <glyph glyph-name="afii10022" unicode="&#x415;" horiz-adv-x="385" 
d="M355 0h-289v712h287v-46h-235v-283h194v-46h-194v-291h237v-46z" />
    <glyph glyph-name="afii10024" unicode="&#x416;" horiz-adv-x="634" 
d="M624 0h-53l-158 364l-70 -129v-235h-52v235l-70 129l-158 -364h-53l182 417l-160 295h52l207 -391v391h52v-391l207 391h52l-160 -295z" />
    <glyph glyph-name="afii10025" unicode="&#x417;" horiz-adv-x="394" 
d="M352 186q0 -102 -41 -147t-123 -45q-71 0 -112.5 44t-41.5 118v20h52v-20q0 -114 104 -114q59 0 84.5 32.5t25.5 109.5v30q0 67 -24.5 97.5t-80.5 30.5h-43v45h43q99 0 99 122v35q0 68 -24 98t-76 30q-49 0 -72.5 -26t-23.5 -82v-20h-52v20q0 80 40 117t107 37
q152 0 152 -176v-40q0 -107 -80 -135q87 -23 87 -146v-35z" />
    <glyph glyph-name="afii10026" unicode="&#x418;" horiz-adv-x="490" 
d="M414 0h-50v551l3 61l-19 -54l-220 -558h-52v712h50v-550l-2 -64l19 59l219 555h52v-712z" />
    <glyph glyph-name="afii10027" unicode="&#x419;" horiz-adv-x="490" 
d="M383 865q-7 -54 -41 -84.5t-87 -30.5t-86 29.5t-40 85.5h45q4 -32 24 -52t59 -20q38 0 58 20.5t23 51.5h45zM414 0h-50v551l3 61l-19 -54l-220 -558h-52v712h50v-550l-2 -64l19 59l219 555h52v-712z" />
    <glyph glyph-name="afii10028" unicode="&#x41a;" horiz-adv-x="431" 
d="M419 0h-56l-160 368l-75 -133v-235h-52v712h52v-391l217 391h52l-162 -290z" />
    <glyph glyph-name="afii10029" unicode="&#x41b;" horiz-adv-x="482" 
d="M406 0h-52v666h-165l-14 -420q-9 -246 -169 -246h-16v48h5q68 0 97.5 57.5t32.5 168.5l14 438h267v-712z" />
    <glyph glyph-name="afii10030" unicode="&#x41c;" horiz-adv-x="568" 
d="M492 0h-50v482l3 87l-16 -61l-121 -402h-45l-124 402l-16 61l3 -87v-482h-50v712h52l158 -530l154 530h52v-712z" />
    <glyph glyph-name="afii10031" unicode="&#x41d;" horiz-adv-x="482" 
d="M406 0h-52v336h-226v-336h-52v712h52v-330h226v330h52v-712z" />
    <glyph glyph-name="afii10032" unicode="&#x41e;" horiz-adv-x="440" 
d="M384 196q0 -58 -14 -99.5t-38.5 -63t-51.5 -30.5t-60 -9t-60 9t-51.5 30.5t-38.5 63t-14 99.5v320q0 58 14 99.5t38.5 63t51.5 30.5t60 9t60 -9t51.5 -30.5t38.5 -63t14 -99.5v-320zM332 206v300q0 99 -29.5 132t-82.5 33t-82.5 -33t-29.5 -132v-300q0 -99 29.5 -132
t82.5 -33t82.5 33t29.5 132z" />
    <glyph glyph-name="afii10033" unicode="&#x41f;" horiz-adv-x="482" 
d="M406 0h-52v666h-226v-666h-52v712h330v-712z" />
    <glyph glyph-name="afii10034" unicode="&#x420;" horiz-adv-x="428" 
d="M394 492q0 -190 -172 -190h-94v-302h-52v712h146q172 0 172 -190v-30zM342 498v18q0 81 -27.5 115.5t-98.5 34.5h-88v-318h88q70 0 98 34.5t28 115.5z" />
    <glyph glyph-name="afii10035" unicode="&#x421;" horiz-adv-x="417" 
d="M378 187q-5 -193 -159 -193q-32 0 -59 9t-51.5 30.5t-38.5 63t-14 99.5v320q0 111 46.5 156.5t116.5 45.5q154 0 159 -184h-53q-2 69 -25 103t-81 34q-53 0 -82 -33.5t-29 -131.5v-300q0 -98 29.5 -131.5t81.5 -33.5q55 0 80 33.5t27 112.5h52z" />
    <glyph glyph-name="afii10036" unicode="&#x422;" horiz-adv-x="353" 
d="M337 666h-135v-666h-52v666h-134v46h321v-46z" />
    <glyph glyph-name="afii10037" unicode="&#x423;" horiz-adv-x="380" 
d="M370 712l-199 -621q-13 -41 -28 -60q-26 -31 -76 -31h-27v46h28q26 0 36.5 11.5t23.5 51.5l37 114l-155 489h53l111 -359l16 -58l17 59l110 358h53z" />
    <glyph glyph-name="afii10038" unicode="&#x424;" horiz-adv-x="543" 
d="M495 271q0 -111 -48 -156.5t-119 -45.5h-30v-69h-52v69h-31q-71 0 -119 45.5t-48 156.5v175q0 111 48 156.5t119 45.5h31v64h52v-64h30q71 0 119 -45.5t48 -156.5v-175zM443 281v155q0 98 -30.5 131.5t-84.5 33.5h-30v-485h30q54 0 84.5 33.5t30.5 131.5zM246 116v485
h-31q-54 0 -84.5 -33.5t-30.5 -131.5v-155q0 -98 30.5 -131.5t84.5 -33.5h31z" />
    <glyph glyph-name="afii10039" unicode="&#x425;" horiz-adv-x="365" 
d="M361 0h-56l-108 266l-17 50l-17 -50l-106 -266h-53l152 370l-141 342h56l93 -230l20 -60l20 60l92 230h53l-141 -342z" />
    <glyph glyph-name="afii10040" unicode="&#x426;" horiz-adv-x="492" 
d="M474 -167h-49v167h-349v712h52v-666h226v666h52v-666h68v-213z" />
    <glyph glyph-name="afii10041" unicode="&#x427;" horiz-adv-x="444" 
d="M368 0h-52v308q-39 -16 -94 -16q-89 0 -130.5 44.5t-41.5 145.5v230h52v-224q0 -80 28 -114t98 -34q49 0 88 14v358h52v-712z" />
    <glyph glyph-name="afii10042" unicode="&#x428;" horiz-adv-x="690" 
d="M614 0h-538v712h52v-666h191v666h52v-666h191v666h52v-712z" />
    <glyph glyph-name="afii10043" unicode="&#x429;" horiz-adv-x="700" 
d="M682 -167h-49v167h-557v712h52v-666h191v666h52v-666h191v666h52v-666h68v-213z" />
    <glyph glyph-name="afii10044" unicode="&#x42a;" horiz-adv-x="498" 
d="M464 190q0 -190 -172 -190h-146v666h-130v46h182v-302h94q172 0 172 -190v-30zM412 196v18q0 81 -28 115.5t-98 34.5h-88v-318h88q71 0 98.5 34.5t27.5 115.5z" />
    <glyph glyph-name="afii10045" unicode="&#x42b;" horiz-adv-x="602" 
d="M526 0h-52v712h52v-712zM394 190q0 -190 -172 -190h-146v712h52v-302h94q172 0 172 -190v-30zM342 196v18q0 81 -28 115.5t-98 34.5h-88v-318h88q71 0 98.5 34.5t27.5 115.5z" />
    <glyph glyph-name="afii10046" unicode="&#x42c;" horiz-adv-x="428" 
d="M394 190q0 -190 -172 -190h-146v712h52v-302h94q172 0 172 -190v-30zM342 196v18q0 81 -28 115.5t-98 34.5h-88v-318h88q71 0 98.5 34.5t27.5 115.5z" />
    <glyph glyph-name="afii10047" unicode="&#x42d;" horiz-adv-x="417" 
d="M361 196q0 -58 -14 -99.5t-38.5 -63t-51.5 -30.5t-59 -9q-154 0 -159 193h52q2 -79 27 -112.5t80 -33.5q52 0 81.5 33.5t29.5 131.5v131h-171v46h171v123q0 98 -29 131.5t-82 33.5q-58 0 -81 -34t-25 -103h-53q5 184 159 184q70 0 116.5 -45.5t46.5 -156.5v-320z" />
    <glyph glyph-name="afii10048" unicode="&#x42e;" horiz-adv-x="600" 
d="M544 196q0 -58 -14 -99.5t-38.5 -63t-51.5 -30.5t-60 -9t-60 9t-51.5 30.5t-38.5 63t-14 99.5v140h-88v-336h-52v712h52v-330h88v134q0 58 14 99.5t38.5 63t51.5 30.5t60 9t60 -9t51.5 -30.5t38.5 -63t14 -99.5v-320zM492 206v300q0 99 -29.5 132t-82.5 33t-82.5 -33
t-29.5 -132v-300q0 -99 29.5 -132t82.5 -33t82.5 33t29.5 132z" />
    <glyph glyph-name="afii10049" unicode="&#x42f;" horiz-adv-x="443" 
d="M367 0h-52v309h-94l-135 -309h-56l136 313q-117 34 -117 175v46q0 83 40.5 130.5t120.5 47.5h157v-712zM315 354v312h-98q-60 0 -88 -33t-28 -106v-34q0 -139 116 -139h98z" />
    <glyph glyph-name="afii10065" unicode="&#x430;" horiz-adv-x="348" 
d="M291 0h-48v49q-28 -52 -90 -52t-90 40q-26 38 -26 95q0 68 35 103.5t93 35.5h78v92q0 45 -16.5 61.5t-51.5 16.5q-70 0 -77 -78h-47q3 61 39.5 92t85.5 31q55 0 85 -29.5t30 -85.5v-371zM243 168v62h-74q-84 0 -84 -97q0 -95 72 -95q44 0 68 36q18 28 18 94z" />
    <glyph glyph-name="afii10066" unicode="&#x431;" horiz-adv-x="344" 
d="M304 157q0 -84 -34.5 -123.5t-95.5 -39.5t-95.5 39.5t-34.5 123.5v206q0 85 2 127t13 89.5t34 76.5q18 22 44.5 34.5t45 15t57.5 4t51 2.5v-43q-10 -2 -53 -3.5t-70 -10t-45 -31.5q-39 -49 -39 -198h2q23 56 95 56q56 0 89.5 -40t33.5 -122v-163zM256 162v153
q0 68 -20 95.5t-62 27.5t-62 -27.5t-20 -95.5v-153q0 -69 20 -96.5t62 -27.5t62 27.5t20 96.5z" />
    <glyph glyph-name="afii10067" unicode="&#x432;" horiz-adv-x="343" 
d="M303 124q0 -124 -125 -124h-118v482h114q123 0 123 -118v-15q0 -84 -58 -101q29 -7 46.5 -37t17.5 -72v-15zM249 353q0 48 -18 67t-66 19h-57v-171h59q49 0 65.5 20t16.5 65zM255 134q0 46 -18.5 68.5t-67.5 22.5h-61v-182h61q49 0 67.5 22.5t18.5 68.5z" />
    <glyph glyph-name="afii10068" unicode="&#x433;" horiz-adv-x="282" 
d="M272 439h-164v-439h-48v482h212v-43z" />
    <glyph glyph-name="afii10069" unicode="&#x434;" horiz-adv-x="367" 
d="M360 -139h-46v139h-264v-139h-46v182h43q33 76 43 149t10 223v67h204v-439h56v-182zM256 43v396h-109v-63q0 -137 -9 -197t-40 -136h158z" />
    <glyph glyph-name="afii10070" unicode="&#x435;" horiz-adv-x="340" 
d="M298 227h-208v-59q0 -72 21 -101t63 -29q38 0 55.5 18.5t19.5 63.5h47q-3 -59 -33.5 -92.5t-88.5 -33.5q-61 0 -96.5 41t-35.5 128v155q0 168 130 168q126 0 126 -162v-97zM250 268v51q0 69 -18 96t-60 27t-62 -28.5t-20 -100.5v-45h160z" />
    <glyph glyph-name="afii10072" unicode="&#x436;" horiz-adv-x="500" 
d="M484 0h-53l-115 237l-42 -72v-165h-48v165l-42 72l-115 -237h-53l136 286l-115 196h52l137 -237v237h48v-237l137 237h52l-115 -196z" />
    <glyph glyph-name="afii10073" unicode="&#x437;" horiz-adv-x="312" 
d="M269 132q0 -138 -117 -138q-76 0 -103 57q-14 29 -14 72h48q0 -27 6 -44q14 -42 63 -42q40 0 55 22.5t15 72.5v15q0 42 -15 60t-50 18h-36v43h36q61 0 61 74v20q0 45 -14.5 63t-50.5 18q-38 0 -53 -21q-12 -16 -12 -57h-47q0 63 30 92q31 29 82 29q111 0 111 -124v-25
q0 -68 -52 -88q57 -18 57 -97v-20z" />
    <glyph glyph-name="afii10074" unicode="&#x438;" horiz-adv-x="375" 
d="M315 0h-48v303l3 83l-162 -386h-48v482h48v-312l-3 -76l162 388h48v-482z" />
    <glyph glyph-name="afii10075" unicode="&#x439;" horiz-adv-x="375" 
d="M306 666q-7 -53 -38.5 -81.5t-79.5 -28.5q-47 0 -78 27.5t-38 82.5h45q9 -67 73 -67q31 0 49.5 19t21.5 48h45zM315 0h-48v303l3 83l-162 -386h-48v482h48v-312l-3 -76l162 388h48v-482z" />
    <glyph glyph-name="afii10076" unicode="&#x43a;" horiz-adv-x="344" 
d="M328 0h-53l-123 236l-44 -72v-164h-48v482h48v-238l147 238h52l-122 -200z" />
    <glyph glyph-name="afii10077" unicode="&#x43b;" horiz-adv-x="370" 
d="M310 0h-48v439h-124l-7 -271q-5 -168 -114 -168h-17v44h10q41 0 57.5 35t18.5 108l7 295h217v-482z" />
    <glyph glyph-name="afii10078" unicode="&#x43c;" horiz-adv-x="455" 
d="M395 0h-47v274l3 76h-3l-100 -280h-40l-100 280h-3l2 -76v-274h-47v482h47l122 -350l119 350h47v-482z" />
    <glyph glyph-name="afii10079" unicode="&#x43d;" horiz-adv-x="370" 
d="M310 0h-48v222h-154v-222h-48v482h48v-217h154v217h48v-482z" />
    <glyph glyph-name="afii10080" unicode="&#x43e;" horiz-adv-x="344" 
d="M302 157q0 -84 -34.5 -123.5t-95.5 -39.5t-95.5 39.5t-34.5 123.5v167q0 82 34.5 122t95.5 40t95.5 -40t34.5 -122v-167zM254 162v157q0 68 -20 95.5t-62 27.5t-62 -27.5t-20 -95.5v-157q0 -69 20 -96.5t62 -27.5t62 27.5t20 96.5z" />
    <glyph glyph-name="afii10081" unicode="&#x43f;" horiz-adv-x="370" 
d="M310 0h-48v439h-154v-439h-48v482h250v-482z" />
    <glyph glyph-name="afii10082" unicode="&#x440;" horiz-adv-x="366" 
d="M324 157q0 -54 -17 -96q-28 -67 -104 -67q-69 0 -95 50v-274h-48v712h48v-49q30 53 96 53q74 0 103 -69q17 -42 17 -93v-167zM276 162v157q0 67 -21 95t-61 28q-86 0 -86 -123v-157q0 -124 86 -124q40 0 61 28.5t21 95.5z" />
    <glyph glyph-name="afii10083" unicode="&#x441;" horiz-adv-x="322" 
d="M292 127q-2 -60 -33.5 -96.5t-91.5 -36.5q-56 0 -90.5 40t-34.5 123v167q0 81 35 121.5t90 40.5q120 0 124 -132h-48q-3 47 -20 67.5t-57 20.5q-76 0 -76 -123v-157q0 -68 19.5 -96t56.5 -28q73 0 78 89h48z" />
    <glyph glyph-name="afii10084" unicode="&#x442;" horiz-adv-x="274" 
d="M265 439h-104v-439h-48v439h-104v43h256v-43z" />
    <glyph glyph-name="afii10085" unicode="&#x443;" horiz-adv-x="284" 
d="M285 482l-152 -611q-11 -42 -23 -59q-22 -30 -71 -30h-16v45h13q26 0 36 12t20 53l29 115l-118 475h49l79 -335l13 -63l13 63l79 335h49z" />
    <glyph glyph-name="afii10086" unicode="&#x444;" horiz-adv-x="500" 
d="M458 193q0 -186 -184 -197v-226h-48v226q-184 11 -184 197v97q0 183 184 195v227h48v-227q184 -10 184 -195v-97zM410 190v100q0 143 -136 154v-405q136 11 136 151zM226 39v405q-136 -11 -136 -154v-100q0 -140 136 -151z" />
    <glyph glyph-name="afii10087" unicode="&#x445;" horiz-adv-x="301" 
d="M283 0h-49l-70 165l-13 39l-13 -39l-71 -165h-49l109 246l-104 236h49l66 -155l13 -38l13 38l65 155h49l-104 -235z" />
    <glyph glyph-name="afii10088" unicode="&#x446;" horiz-adv-x="379" 
d="M372 -139h-46v139h-266v482h48v-439h154v439h48v-439h62v-182z" />
    <glyph glyph-name="afii10089" unicode="&#x447;" horiz-adv-x="338" 
d="M278 0h-48v202q-25 -11 -67 -11q-64 0 -93.5 32t-29.5 100v159h48v-155q0 -51 17.5 -72t61.5 -21q45 0 63 10v238h48v-482z" />
    <glyph glyph-name="afii10090" unicode="&#x448;" horiz-adv-x="510" 
d="M450 0h-390v482h48v-439h123v439h48v-439h123v439h48v-482z" />
    <glyph glyph-name="afii10091" unicode="&#x449;" horiz-adv-x="519" 
d="M512 -139h-46v139h-406v482h48v-439h123v439h48v-439h123v439h48v-439h62v-182z" />
    <glyph glyph-name="afii10092" unicode="&#x44a;" horiz-adv-x="373" 
d="M343 132q0 -132 -123 -132h-115v439h-96v43h144v-199h67q123 0 123 -132v-19zM295 136v11q0 51 -17.5 72t-61.5 21h-63v-197h63q45 0 62 20.5t17 72.5z" />
    <glyph glyph-name="afii10093" unicode="&#x44b;" horiz-adv-x="455" 
d="M395 0h-48v482h48v-482zM298 132q0 -132 -123 -132h-115v482h48v-199h67q123 0 123 -132v-19zM250 136v11q0 51 -17.5 72t-61.5 21h-63v-197h63q45 0 62 20.5t17 72.5z" />
    <glyph glyph-name="afii10094" unicode="&#x44c;" horiz-adv-x="328" 
d="M298 132q0 -132 -123 -132h-115v482h48v-199h67q123 0 123 -132v-19zM250 136v11q0 51 -17.5 72t-61.5 21h-63v-197h63q45 0 62 20.5t17 72.5z" />
    <glyph glyph-name="afii10095" unicode="&#x44d;" horiz-adv-x="322" 
d="M280 157q0 -83 -34.5 -123t-90.5 -40q-59 0 -91 36t-34 93h48q5 -85 78 -85q37 0 56.5 28t19.5 96v60h-126v43h126v54q0 123 -76 123q-40 0 -57 -20t-20 -65h-48q2 64 34.5 96.5t89.5 32.5q55 0 90 -40.5t35 -121.5v-167z" />
    <glyph glyph-name="afii10096" unicode="&#x44e;" horiz-adv-x="480" 
d="M438 157q0 -84 -34.5 -123.5t-95.5 -39.5t-95.5 39.5t-34.5 123.5v65h-70v-222h-48v482h48v-217h70v59q0 82 34.5 122t95.5 40t95.5 -40t34.5 -122v-167zM390 162v157q0 68 -20 95.5t-62 27.5t-62 -27.5t-20 -95.5v-157q0 -69 20 -96.5t62 -27.5t62 27.5t20 96.5z" />
    <glyph glyph-name="afii10097" unicode="&#x44f;" horiz-adv-x="354" 
d="M294 0h-49v204h-68l-91 -204h-52l93 209q-77 26 -77 119v30q0 57 29.5 90.5t86.5 33.5h128v-482zM245 246v193h-74q-38 0 -55.5 -19.5t-17.5 -65.5v-23q0 -85 73 -85h74z" />
    <glyph glyph-name="afii10071" unicode="&#x451;" horiz-adv-x="340" 
d="M277 609q0 -16 -11 -27.5t-26 -11.5q-16 0 -27 11t-11 26q0 16 11 27t26 11t26.5 -11t11.5 -25zM150 609q0 -16 -11 -27.5t-26 -11.5q-16 0 -27 11t-11 26q0 16 11 27t26 11t26.5 -11t11.5 -25zM298 227h-208v-59q0 -72 21 -101t63 -29q38 0 55.5 18.5t19.5 63.5h47
q-3 -59 -33.5 -92.5t-88.5 -33.5q-61 0 -96.5 41t-35.5 128v155q0 168 130 168q126 0 126 -162v-97zM250 268v51q0 69 -18 96t-60 27t-62 -28.5t-20 -100.5v-45h160z" />
    <glyph glyph-name="afii10099" unicode="&#x452;" horiz-adv-x="367" 
d="M310 6q0 -51 -24 -80.5t-73 -29.5h-17v45h12q30 0 42 16t12 50v265q0 48 -17 68.5t-54 20.5q-83 0 -83 -90v-271h-48v486h-41v38h41v188h48v-188h156v-38h-156v-131q28 51 92 51q55 0 82.5 -33.5t27.5 -90.5v-276z" />
    <glyph glyph-name="afii10100" unicode="&#x453;" horiz-adv-x="282" 
d="M255 666l-92 -126h-43l83 126h52zM272 439h-164v-439h-48v482h212v-43z" />
    <glyph glyph-name="afii10101" unicode="&#x454;" horiz-adv-x="322" 
d="M292 123q-2 -57 -34 -93t-91 -36q-56 0 -90.5 40t-34.5 123v167q0 81 35 121.5t90 40.5q57 0 89.5 -32.5t34.5 -96.5h-48q-3 45 -20 65t-57 20q-76 0 -76 -123v-54h126v-43h-126v-60q0 -68 19.5 -96t56.5 -28q73 0 78 85h48z" />
    <glyph glyph-name="afii10102" unicode="&#x455;" horiz-adv-x="315" 
d="M272 132q0 -138 -117 -138q-109 0 -117 124h48q3 -43 18.5 -62t50.5 -19q40 0 55 22.5t15 72.5q0 41 -9.5 58t-41.5 28l-44 15q-48 17 -66 44t-18 85q0 63 30 93.5t82 30.5q51 0 80.5 -27.5t31.5 -84.5h-47q-2 39 -17.5 54t-47.5 15q-36 0 -50.5 -18t-14.5 -63
q0 -41 9.5 -57.5t37.5 -26.5l43 -15q49 -17 69 -41.5t20 -89.5z" />
    <glyph glyph-name="afii10103" unicode="&#x456;" horiz-adv-x="185" 
d="M130 676q0 -16 -11 -27.5t-26 -11.5q-16 0 -27 11t-11 26q0 16 11 27t26 11t26.5 -11t11.5 -25zM117 0h-49v482h49v-482z" />
    <glyph glyph-name="afii10104" unicode="&#x457;" horiz-adv-x="185" 
d="M194 676q0 -16 -11 -27.5t-26 -11.5q-16 0 -27 11t-11 26q0 16 11 27t26 11t26.5 -11t11.5 -25zM67 676q0 -16 -11 -27.5t-26 -11.5q-16 0 -27 11t-11 26q0 16 11 27t26 11t26.5 -11t11.5 -25zM117 0h-49v482h49v-482z" />
    <glyph glyph-name="afii10105" unicode="&#x458;" horiz-adv-x="186" 
d="M133 676q0 -16 -11 -27.5t-26 -11.5q-16 0 -27 11t-11 26q0 16 11 27t26 11t26.5 -11t11.5 -25zM121 -120q0 -51 -24 -80.5t-73 -29.5h-17v45h12q30 0 42 16t12 50v601h48v-602z" />
    <glyph glyph-name="afii10106" unicode="&#x459;" horiz-adv-x="534" 
d="M500 132q0 -132 -123 -132h-115v439h-124l-7 -271q-5 -168 -114 -168h-17v44h10q41 0 57.5 35t18.5 108l7 295h217v-209h67q123 0 123 -132v-9zM452 136v1q0 51 -17.5 72t-61.5 21h-63v-187h63q45 0 62 20.5t17 72.5z" />
    <glyph glyph-name="afii10107" unicode="&#x45a;" horiz-adv-x="534" 
d="M500 132q0 -132 -123 -132h-115v230h-154v-230h-48v482h48v-209h154v209h48v-209h67q123 0 123 -132v-9zM452 136v1q0 51 -17.5 72t-61.5 21h-63v-187h63q45 0 62 20.5t17 72.5z" />
    <glyph glyph-name="afii10108" unicode="&#x45b;" horiz-adv-x="367" 
d="M310 0h-48v272q0 48 -17 68.5t-54 20.5q-83 0 -83 -90v-271h-48v486h-41v38h41v188h48v-188h156v-38h-156v-131q28 51 92 51q55 0 82.5 -33.5t27.5 -90.5v-282z" />
    <glyph glyph-name="afii10109" unicode="&#x45c;" horiz-adv-x="344" 
d="M255 666l-92 -126h-43l83 126h52zM328 0h-53l-123 236l-44 -72v-164h-48v482h48v-238l147 238h52l-122 -200z" />
    <glyph glyph-name="afii10110" unicode="&#x45e;" horiz-adv-x="284" 
d="M258 666q-7 -53 -38.5 -81.5t-79.5 -28.5q-47 0 -78 27.5t-38 82.5h45q9 -67 73 -67q31 0 49.5 19t21.5 48h45zM285 482l-152 -611q-11 -42 -23 -59q-22 -30 -71 -30h-16v45h13q26 0 36 12t20 53l29 115l-118 475h49l79 -335l13 -63l13 63l79 335h49z" />
    <glyph glyph-name="afii10193" unicode="&#x45f;" horiz-adv-x="370" 
d="M310 0h-102v-139h-46v139h-102v482h48v-439h154v439h48v-482z" />
    <glyph glyph-name="afii10050" unicode="&#x490;" horiz-adv-x="354" 
d="M338 666h-220v-666h-52v712h223v167h49v-213z" />
    <glyph glyph-name="afii10098" unicode="&#x491;" horiz-adv-x="282" 
d="M272 439h-164v-439h-48v482h166v139h46v-182z" />
    <glyph glyph-name="endash" unicode="&#x2013;" horiz-adv-x="500" 
d="M500 240h-500v47h500v-47z" />
    <glyph glyph-name="emdash" unicode="&#x2014;" horiz-adv-x="1000" 
d="M1000 240h-1000v47h1000v-47z" />
    <glyph glyph-name="quoteleft" unicode="&#x2018;" horiz-adv-x="211" 
d="M162 712l-40 -155h-67l65 155h42z" />
    <glyph glyph-name="quoteright" unicode="&#x2019;" horiz-adv-x="211" 
d="M140 712l-65 -155h-42l40 155h67z" />
    <glyph glyph-name="quotesinglbase" unicode="&#x201a;" horiz-adv-x="211" 
d="M162 73l-65 -155h-42l40 155h67z" />
    <glyph glyph-name="quotedblleft" unicode="&#x201c;" horiz-adv-x="347" 
d="M292 712l-40 -155h-67l65 155h42zM162 712l-40 -155h-67l65 155h42z" />
    <glyph glyph-name="quotedblright" unicode="&#x201d;" horiz-adv-x="347" 
d="M270 712l-65 -155h-42l40 155h67zM140 712l-65 -155h-42l40 155h67z" />
    <glyph glyph-name="quotedblbase" unicode="&#x201e;" horiz-adv-x="347" 
d="M292 73l-65 -155h-42l40 155h67zM162 73l-65 -155h-42l40 155h67z" />
    <glyph glyph-name="dagger" unicode="&#x2020;" horiz-adv-x="454" 
d="M404 457h-153v-457h-51v457h-150v45h150v210h51v-210h153v-45z" />
    <glyph glyph-name="daggerdbl" unicode="&#x2021;" horiz-adv-x="454" 
d="M404 -20h-153v-210h-51v210h-150v45h150v432h-150v45h150v210h51v-210h153v-45h-153v-432h153v-45z" />
    <glyph glyph-name="bullet" unicode="&#x2022;" horiz-adv-x="294" 
d="M245 358q0 -40 -28.5 -69t-69.5 -29t-69.5 29t-28.5 69t28.5 69t69.5 29t69.5 -29t28.5 -69z" />
    <glyph glyph-name="ellipsis" unicode="&#x2026;" horiz-adv-x="570" 
d="M507 37q0 -18 -12.5 -30.5t-29.5 -12.5t-29.5 12.5t-12.5 29.5t12.5 29.5t29.5 12.5t29.5 -12t12.5 -29zM327 37q0 -18 -12.5 -30.5t-29.5 -12.5t-29.5 12.5t-12.5 29.5t12.5 29.5t29.5 12.5t29.5 -12t12.5 -29zM146 37q0 -18 -12.5 -30.5t-29.5 -12.5t-29.5 12.5
t-12.5 29.5t12.5 29.5t29.5 12.5t29.5 -12t12.5 -29z" />
    <glyph glyph-name="perthousand" unicode="&#x2030;" horiz-adv-x="798" 
d="M761 116q0 -123 -97 -123q-48 0 -73 32t-25 91v130q0 60 25 92t73 32q97 0 97 -124v-130zM231 465q0 -123 -97 -123t-97 123v130q0 124 97 124t97 -124v-130zM411 712l-224 -712h-45l224 712h45zM518 116q0 -123 -97 -123q-48 0 -73 32t-25 91v130q0 60 25 92t73 32
q97 0 97 -124v-130zM717 116v130q0 44 -12 63.5t-41 19.5q-30 0 -42.5 -19.5t-12.5 -63.5v-130q0 -43 12.5 -62.5t42.5 -19.5q28 0 40.5 19.5t12.5 62.5zM188 465v130q0 44 -12.5 63.5t-41.5 19.5t-41.5 -19.5t-12.5 -63.5v-130q0 -43 12.5 -62.5t41.5 -19.5t41.5 19.5
t12.5 62.5zM474 116v130q0 44 -12 63.5t-41 19.5q-30 0 -42.5 -19.5t-12.5 -63.5v-130q0 -43 12.5 -62.5t42.5 -19.5q28 0 40.5 19.5t12.5 62.5z" />
    <glyph glyph-name="guilsinglleft" unicode="&#x2039;" horiz-adv-x="244" 
d="M204 91l-174 174l174 174v-66l-108 -108l108 -108v-66z" />
    <glyph glyph-name="guilsinglright" unicode="&#x203a;" horiz-adv-x="244" 
d="M214 265l-174 -174v66l108 108l-108 108v66z" />
    <glyph glyph-name="afii61352" unicode="&#x2116;" horiz-adv-x="722" 
d="M671 250q0 -123 -97 -123t-97 123v100q0 124 97 124t97 -124v-100zM422 0h-52l-228 548l-19 54l3 -61v-541h-50v712h52l227 -545l19 -59l-2 64v540h50v-712zM671 0h-194v45h194v-45zM628 250v100q0 44 -12.5 63.5t-41.5 19.5t-41.5 -19.5t-12.5 -63.5v-100
q0 -43 12.5 -62.5t41.5 -19.5t41.5 19.5t12.5 62.5z" />
    <glyph glyph-name="trademark" unicode="&#x2122;" horiz-adv-x="800" 
d="M753 285h-44v328l-110 -218h-46l-110 218v-328h-44v427h44l133 -270l133 270h44v-427zM320 671h-122v-386h-44v386h-122v41h288v-41z" />
    <glyph glyph-name="radical" unicode="&#x221a;" horiz-adv-x="528" 
d="M498 664h-88l-217 -664h-46l-117 354h56l84 -259l199 617h129v-48z" />
    <glyph glyph-name="infinity" unicode="&#x221e;" horiz-adv-x="792" 
d="M720 260q0 -64 -42 -106t-106 -42q-55 0 -93 27t-83 81q-45 -54 -83 -81.5t-93 -27.5q-64 0 -106 42.5t-42 106.5q0 65 42 107.5t106 42.5q54 0 93 -28t83 -82q30 36 49.5 55.5t53.5 37t73 17.5q64 0 106 -42.5t42 -107.5zM672 260q0 45 -28.5 74.5t-72.5 29.5
q-10 0 -20 -2t-20 -6.5t-17.5 -8.5t-17.5 -12.5l-15 -13t-15 -15.5l-13.5 -15l-14 -16.5t-12.5 -14.5q1 -1 12.5 -14.5l14 -16.5l13 -15t15.5 -15.5t15 -12.5t17.5 -12t17.5 -8t19.5 -6.5t20.5 -1.5q44 0 72.5 28.5t28.5 73.5zM366 260q-2 2 -14 16.5l-15.5 19t-15.5 17
t-18 17l-17.5 13.5t-20.5 12.5t-20.5 6.5t-23.5 3q-44 0 -72.5 -29.5t-28.5 -75.5q0 -45 28.5 -73.5t72.5 -28.5q23 0 43 7.5t41.5 28t29 29z" />
    <glyph glyph-name="approxequal" unicode="&#x2248;" 
d="M325 352q-21 -34 -41 -51t-53 -17q-27 0 -68 29q-37 27 -53 27q-18 0 -30 -10t-27 -36l-36 20q21 34 41 51t53 17q30 0 70 -30q36 -26 51 -26q18 0 30 10t27 36zM325 218q-21 -34 -41 -51t-53 -17q-27 0 -68 29q-37 27 -53 27q-18 0 -30 -10t-27 -36l-36 20q21 34 41 51
t53 17q30 0 70 -30q36 -26 51 -26q18 0 30 10t27 36z" />
    <glyph glyph-name="notequal" unicode="&#x2260;" 
d="M309 164h-156l-66 -121l-42 22l54 99h-67v45h92l58 108h-150v45h175l53 99l42 -22l-42 -77h49v-45h-73l-59 -108h132v-45z" />
    <glyph glyph-name="lessequal" unicode="&#x2264;" 
d="M309 178l-277 107v54l277 108v-54l-211 -81l211 -80v-54zM309 0h-277v48h277v-48z" />
    <glyph glyph-name="greaterequal" unicode="&#x2265;" 
d="M309 285l-277 -107v54l211 80l-211 81v54l277 -108v-54zM309 0h-277v48h277v-48z" />
    <glyph glyph-name="hyphenminus" horiz-adv-x="263" 
d="M214 242h-165v45h165v-45z" />
    <glyph glyph-name="periodcentered" horiz-adv-x="210" 
d="M146 265q0 -18 -12.5 -30.5t-29.5 -12.5t-29.5 12.5t-12.5 29.5t12.5 29.5t29.5 12.5t29.5 -12t12.5 -29z" />
    </font>
</defs>
</svg>
